<svg width="111" height="80" viewBox="0 0 111 80" fill="none" xmlns="http://www.w3.org/2000/svg">
<path opacity="0.1" d="M111 13.4307C103.445 15.3771 97.6335 18.2968 93.5655 22.1898C89.6911 25.8881 87.9478 30.365 88.3353 35.6204C90.8536 38.7348 93.9528 41.2652 97.6335 43.2117C101.508 44.9635 105.576 46.5207 109.838 47.8832C110.806 51.3869 110.903 54.9878 110.128 58.6861C109.547 62.1898 108.288 65.4988 106.351 68.6131C104.414 71.5329 102.089 74.0633 99.3771 76.2044C96.8588 78.3455 94.2435 79.6107 91.5314 80C87.4634 79.8054 83.4922 79.0268 79.6178 77.6642C75.7435 76.107 72.3536 73.9659 69.4478 71.2409C66.542 68.5158 64.1204 65.3041 62.1833 61.6058C60.4398 57.7129 59.5682 53.3333 59.5682 48.4672C59.5682 42.6277 60.7305 37.0803 63.0551 31.8248C65.3797 26.3747 68.5759 21.5085 72.644 17.2263C76.9058 12.944 81.9426 9.34307 87.7542 6.42336C93.5657 3.30901 99.9582 1.16789 106.932 0L111 13.4307ZM51.4322 13.4307C43.8772 15.3771 38.0653 18.2968 33.9973 22.1898C30.1229 25.8881 28.3797 30.365 28.7671 35.6204C31.2854 38.7348 34.385 41.2652 38.0656 43.2117C41.94 44.9635 46.0079 46.5207 50.2696 47.8832C51.2382 51.3869 51.3352 54.9878 50.5604 58.6861C49.9792 62.1898 48.7199 65.4988 46.7827 68.6131C44.8456 71.5329 42.521 74.0633 39.8089 76.2044C37.2906 78.3455 34.6753 79.6107 31.9633 80C27.8952 79.8054 23.924 79.0268 20.0496 77.6642C16.1753 76.107 12.7854 73.9659 9.87963 71.2409C6.97387 68.5158 4.55227 65.3041 2.61509 61.6058C0.871638 57.7129 0 53.3333 0 48.4672C0 42.6277 1.1623 37.0803 3.48691 31.8248C5.81152 26.3747 9.00776 21.5085 13.0758 17.2263C17.3376 12.944 22.3745 9.34307 28.186 6.42336C33.9975 3.30901 40.39 1.16789 47.3638 0L51.4322 13.4307Z" fill="#4CAF50"/>
</svg>
